<?xml version="1.0" encoding="UTF-8"?>
<svg version="1.1" xmlns="http://www.w3.org/2000/svg" width="358" height="279">
<path d="M0 0 C118.14 0 236.28 0 358 0 C358 92.07 358 184.14 358 279 C239.86 279 121.72 279 0 279 C0 186.93 0 94.86 0 0 Z " fill="#1B1B1B" transform="translate(0,0)"/>
<path d="M0 0 C0.76460761 0.00359811 1.52921522 0.00719622 2.31699276 0.01090336 C3.12991252 0.01078282 3.94283228 0.01066229 4.78038597 0.0105381 C7.42404466 0.01128728 10.06763372 0.01891572 12.71127987 0.0267725 C14.33851748 0.0282419 15.96575556 0.02926262 17.59299374 0.02982426 C23.64154422 0.03507732 29.69008459 0.0490384 35.73862362 0.06192875 C49.24799862 0.08255375 62.75737362 0.10317875 76.67612362 0.12442875 C76.67612362 39.39442875 76.67612362 78.66442875 76.67612362 119.12442875 C66.53339391 115.06733687 66.53339391 115.06733687 63.32065487 111.70646 C61.10824502 109.57813223 58.65791594 108.26009098 55.98862362 106.74942875 C54.92772518 106.13970219 53.86682674 105.52997562 52.77377987 104.9017725 C51.75155331 104.31524906 50.72932674 103.72872562 49.67612362 103.12442875 C46.93697992 101.52763721 44.30924462 99.89672173 41.67612362 98.12442875 C41.67612362 97.46442875 41.67612362 96.80442875 41.67612362 96.12442875 C40.62424862 95.89755375 39.57237362 95.67067875 38.48862362 95.43692875 C34.46897079 94.30917044 32.5827277 92.10369793 29.67612362 89.12442875 C28.08068137 88.37554769 26.47883136 87.63449308 24.83627987 86.9955225 C8.4388098 80.38316115 8.4388098 80.38316115 4.21909237 72.35099125 C1.793441 66.4973092 1.05687857 60.15439344 0.05112362 53.93692875 C-0.05815464 53.27634464 -0.1674329 52.61576054 -0.28002262 51.93515873 C-2.13084816 40.68444171 -3.17627065 29.53032638 -3.32387638 18.12442875 C-3.98387638 18.12442875 -4.64387638 18.12442875 -5.32387638 18.12442875 C-5.51771817 15.31223169 -5.70424241 12.49988679 -5.88637638 9.68692875 C-5.9424506 8.88448734 -5.99852482 8.08204594 -6.05629826 7.25528812 C-6.18550588 5.21380764 -6.25900368 3.16896506 -6.32387638 1.12442875 C-4.58160343 -0.61784421 -2.32107815 0.00463445 0 0 Z " fill="#FD9B0B" transform="translate(190.3238763809204,29.875571250915527)"/>
<path d="M0 0 C25.41 0 50.82 0 77 0 C77 5.94 77 11.88 77 18 C76.34 18 75.68 18 75 18 C75.02320313 18.64839844 75.04640625 19.29679687 75.0703125 19.96484375 C75.27334571 31.00114872 74.2624443 41.93824525 73.2734375 52.92089844 C73.02027106 55.77173338 72.7898128 58.62357638 72.5625 61.4765625 C72.41833736 63.08869194 72.272614 64.70068292 72.125 66.3125 C72.07102051 67.04041748 72.01704102 67.76833496 71.96142578 68.51831055 C71.62766343 71.84993116 71.18557981 73.76556346 69.0859375 76.41796875 C66.81331103 78.14158995 64.63780934 78.94487627 62 80 C61.443125 80.61875 60.88625 81.2375 60.3125 81.875 C57.35452429 84.59313985 54.33845696 85.5948432 50.60546875 86.984375 C48.1582717 87.93830489 45.88608303 89.03022629 43.5625 90.25 C40 92 40 92 37 92 C36.505 93.485 36.505 93.485 36 95 C34.06640625 95.95703125 34.06640625 95.95703125 31.5625 96.8125 C26.6517757 98.62840812 22.43436186 101.01347755 18.03125 103.828125 C16 105 16 105 14 105 C14 105.66 14 106.32 14 107 C11.525 107.495 11.525 107.495 9 108 C8.67 108.99 8.34 109.98 8 111 C5.36 111.33 2.72 111.66 0 112 C0 75.04 0 38.08 0 0 Z " fill="#FD9B0B" transform="translate(82,30)"/>
<path d="M0 0 C0 27.06 0 54.12 0 82 C-23.76 82 -47.52 82 -72 82 C-72 58.57 -72 35.14 -72 11 C-61.0446486 8.69361023 -51.33357353 6.70904638 -40.421875 5.56640625 C-33.66129775 4.77767224 -27.01898853 3.29914568 -20.36328125 1.90234375 C-18.90887035 1.60148424 -17.45444522 1.30069352 -16 1 C-15.02417969 0.79503906 -14.04835937 0.59007812 -13.04296875 0.37890625 C-8.72681037 -0.15853581 -4.34949044 0 0 0 Z " fill="#25ACE1" transform="translate(153,166)"/>
<path d="M0 0 C1.59017654 0.14737721 3.18004403 0.29809119 4.76977539 0.45019531 C6.09785973 0.57554657 6.09785973 0.57554657 7.45277405 0.70343018 C10.8652817 1.10074349 14.10923257 1.90494563 17.4375 2.75 C32.37677651 6.33651113 47.79133747 7.94511816 63 10 C63 10.66 63 11.32 63 12 C65.64 12 68.28 12 71 12 C71 35.1 71 58.2 71 82 C53.7059375 82.0309375 53.7059375 82.0309375 36.0625 82.0625 C32.41711182 82.071604 28.77172363 82.08070801 25.01586914 82.09008789 C20.57702637 82.09460449 20.57702637 82.09460449 18.50144958 82.09544373 C17.04649042 82.09698303 15.59153257 82.10050768 14.13658142 82.10557556 C11.93746715 82.11285502 9.73843108 82.11390735 7.53930664 82.11352539 C5.67732384 82.11685631 5.67732384 82.11685631 3.77772522 82.12025452 C1 82 1 82 0 81 C-0.09504251 78.47458998 -0.12557158 75.97662874 -0.11352539 73.45092773 C-0.11367142 72.66074249 -0.11381744 71.87055725 -0.1139679 71.056427 C-0.11326857 68.43212178 -0.10547527 65.80788664 -0.09765625 63.18359375 C-0.09579214 61.36898335 -0.0943682 59.55437244 -0.09336853 57.73976135 C-0.08954279 52.9540977 -0.07971204 48.1684642 -0.06866455 43.3828125 C-0.05845163 38.50325936 -0.05387117 33.62370136 -0.04882812 28.74414062 C-0.03808982 19.16274714 -0.02101273 9.58137607 0 0 Z " fill="#25ACE1" transform="translate(196,165)"/>
<path d="M0 0 C25.41 0 50.82 0 77 0 C77 5.94 77 11.88 77 18 C76.34 18 75.68 18 75 18 C75.02320313 18.64839844 75.04640625 19.29679687 75.0703125 19.96484375 C75.27334571 31.00114872 74.2624443 41.93824525 73.2734375 52.92089844 C73.02027106 55.77173338 72.7898128 58.62357638 72.5625 61.4765625 C72.41833736 63.08869194 72.272614 64.70068292 72.125 66.3125 C72.07102051 67.04041748 72.01704102 67.76833496 71.96142578 68.51831055 C71.62766343 71.84993116 71.18557981 73.76556346 69.0859375 76.41796875 C66.81331103 78.14158995 64.63780934 78.94487627 62 80 C61.443125 80.61875 60.88625 81.2375 60.3125 81.875 C57.35452429 84.59313985 54.33845696 85.5948432 50.60546875 86.984375 C48.1582717 87.93830489 45.88608303 89.03022629 43.5625 90.25 C40 92 40 92 37 92 C36.505 93.485 36.505 93.485 36 95 C34.06640625 95.95703125 34.06640625 95.95703125 31.5625 96.8125 C26.6517757 98.62840812 22.43436186 101.01347755 18.03125 103.828125 C16 105 16 105 14 105 C14 105.66 14 106.32 14 107 C11.525 107.495 11.525 107.495 9 108 C8.67 108.99 8.34 109.98 8 111 C5.36 111.33 2.72 111.66 0 112 C0 75.04 0 38.08 0 0 Z M3 3 C3 36.66 3 70.32 3 105 C3.99 105 4.98 105 6 105 C6 104.01 6 103.02 6 102 C6.66 102 7.32 102 8 102 C8.30292969 101.40832031 8.60585937 100.81664062 8.91796875 100.20703125 C11.49165745 95.3526584 14.10041589 91.89958411 18 88 C19.33563611 84.83298577 19.33563611 84.83298577 20 82 C20.66 82 21.32 82 22 82 C22.350625 81.071875 22.70125 80.14375 23.0625 79.1875 C25.60727891 73.28988442 28.87535101 65.84572289 34.51953125 62.51171875 C37.62088138 60.62160458 38.63535077 58.75645086 40.3125 55.5625 C40.82425781 54.61503906 41.33601563 53.66757813 41.86328125 52.69140625 C43.25938193 49.8727968 43.25938193 49.8727968 43 46 C43.598125 45.76023438 44.19625 45.52046875 44.8125 45.2734375 C47.45556904 43.73479374 48.41335581 42.22054295 50 39.625 C51.64823835 37.00696485 52.95966428 35.03697441 55.25 32.9375 C57.20199572 30.77636189 57.45534464 29.60640191 58.0625 26.8125 C58.371875 25.554375 58.68125 24.29625 59 23 C59.99 22.67 60.98 22.34 62 22 C63.54214886 19.8150168 63.54214886 19.8150168 64.9375 17.1875 C66.51606252 14.33766846 67.7821924 12.19994816 70.19140625 9.98828125 C72.56074148 7.83151452 72.56074148 7.83151452 72 3 C49.23 3 26.46 3 3 3 Z " fill="#DE8113" transform="translate(82,30)"/>
<path d="M0 0 C0.76316528 0.00359528 1.52633057 0.00719055 2.31262207 0.01089478 C3.51253029 0.01067574 3.51253029 0.01067574 4.73667908 0.01045227 C7.39344958 0.01115161 10.05015086 0.01894498 12.70690918 0.02676392 C14.54393984 0.02862802 16.38097099 0.03005196 18.21800232 0.03105164 C23.06284955 0.03487742 27.90766701 0.04470821 32.75250244 0.05575562 C37.69237871 0.06596845 42.63225978 0.07054898 47.57214355 0.07559204 C57.27202646 0.08633042 66.97188722 0.10340756 76.67175293 0.12442017 C76.67175293 0.45442017 76.67175293 0.78442017 76.67175293 1.12442017 C50.93175293 1.45442017 25.19175293 1.78442017 -1.32824707 2.12442017 C-0.74898338 9.86245521 -0.74898338 9.86245521 3.67175293 14.12442017 C4.67175293 16.62442017 4.67175293 16.62442017 5.67175293 19.12442017 C6.37300293 19.82567017 7.07425293 20.52692017 7.79675293 21.24942017 C9.67175293 23.12442017 9.67175293 23.12442017 9.67175293 26.12442017 C10.33175293 26.12442017 10.99175293 26.12442017 11.67175293 26.12442017 C11.67175293 27.11442017 11.67175293 28.10442017 11.67175293 29.12442017 C12.29050293 29.39254517 12.90925293 29.66067017 13.54675293 29.93692017 C15.67175293 31.12442017 15.67175293 31.12442017 17.67175293 34.12442017 C17.67175293 35.44442017 17.67175293 36.76442017 17.67175293 38.12442017 C18.33175293 38.12442017 18.99175293 38.12442017 19.67175293 38.12442017 C19.67175293 38.78442017 19.67175293 39.44442017 19.67175293 40.12442017 C20.33175293 40.12442017 20.99175293 40.12442017 21.67175293 40.12442017 C21.77487793 40.76379517 21.87800293 41.40317017 21.98425293 42.06192017 C22.21112793 42.74254517 22.43800293 43.42317017 22.67175293 44.12442017 C24.15675293 44.61942017 24.15675293 44.61942017 25.67175293 45.12442017 C26.7066117 47.44250381 27.70729433 49.77617315 28.67175293 52.12442017 C29.66175293 52.61942017 29.66175293 52.61942017 30.67175293 53.12442017 C30.67175293 54.11442017 30.67175293 55.10442017 30.67175293 56.12442017 C31.26987793 56.33067017 31.86800293 56.53692017 32.48425293 56.74942017 C35.51009563 58.65137843 36.31883795 60.87742421 37.67175293 64.12442017 C37.67175293 64.78442017 37.67175293 65.44442017 37.67175293 66.12442017 C39.32175293 66.78442017 40.97175293 67.44442017 42.67175293 68.12442017 C42.67175293 69.11442017 42.67175293 70.10442017 42.67175293 71.12442017 C43.33175293 71.12442017 43.99175293 71.12442017 44.67175293 71.12442017 C44.90249512 71.64391235 45.1332373 72.16340454 45.37097168 72.69863892 C47.5679111 77.39644218 49.91998829 80.47687122 53.67175293 84.12442017 C53.67175293 85.11442017 53.67175293 86.10442017 53.67175293 87.12442017 C54.66175293 87.45442017 55.65175293 87.78442017 56.67175293 88.12442017 C57.35521975 89.78426815 58.01763608 91.45278822 58.67175293 93.12442017 C59.93981708 94.99040063 61.27520332 96.78383093 62.64831543 98.57363892 C63.67175293 100.12442017 63.67175293 100.12442017 63.67175293 102.12442017 C64.33175293 102.12442017 64.99175293 102.12442017 65.67175293 102.12442017 C65.93987793 102.92879517 66.20800293 103.73317017 66.48425293 104.56192017 C67.07206543 105.83035767 67.07206543 105.83035767 67.67175293 107.12442017 C69.15675293 107.61942017 69.15675293 107.61942017 70.67175293 108.12442017 C71.62097168 110.19082642 71.62097168 110.19082642 72.35925293 112.68692017 C72.61062012 113.51320923 72.8619873 114.33949829 73.12097168 115.19082642 C73.30272949 115.82891235 73.4844873 116.46699829 73.67175293 117.12442017 C65.4012385 113.908109 65.4012385 113.908109 63.41003418 111.76895142 C61.14964028 109.6304664 58.69093655 108.28124368 55.98425293 106.74942017 C54.92335449 106.1396936 53.86245605 105.52996704 52.76940918 104.90176392 C51.74718262 104.31524048 50.72495605 103.72871704 49.67175293 103.12442017 C46.93260923 101.52762863 44.30487393 99.89671314 41.67175293 98.12442017 C41.67175293 97.46442017 41.67175293 96.80442017 41.67175293 96.12442017 C40.61987793 95.89754517 39.56800293 95.67067017 38.48425293 95.43692017 C34.4646001 94.30916186 32.57835701 92.10368935 29.67175293 89.12442017 C28.07631068 88.37553911 26.47446067 87.6344845 24.83190918 86.99551392 C8.43443911 80.38315257 8.43443911 80.38315257 4.21472168 72.35098267 C1.78907031 66.49730061 1.05250788 60.15438486 0.04675293 53.93692017 C-0.06252533 53.27633606 -0.17180359 52.61575195 -0.28439331 51.93515015 C-2.13521885 40.68443312 -3.18064134 29.5303178 -3.32824707 18.12442017 C-3.98824707 18.12442017 -4.64824707 18.12442017 -5.32824707 18.12442017 C-5.52208886 15.31222311 -5.7086131 12.49987821 -5.89074707 9.68692017 C-5.94682129 8.88447876 -6.00289551 8.08203735 -6.06066895 7.25527954 C-6.18987657 5.21379905 -6.26337437 3.16895648 -6.32824707 1.12442017 C-4.5853253 -0.6185016 -2.32201212 0.00461713 0 0 Z " fill="#DB7F14" transform="translate(190.3282470703125,29.875579833984375)"/>
<path d="M0 0 C-0.33 1.32 -0.66 2.64 -1 4 C-3.13297453 4.48163941 -5.26650237 4.96092479 -7.40234375 5.4296875 C-9.00058401 5.78057935 -10.59734007 6.13842105 -12.19140625 6.5078125 C-18.69123585 7.93212299 -25.23026064 8.64241643 -31.84350586 9.30273438 C-35.04801655 9.62974629 -37.93320175 9.97773392 -41 11 C-42.89470816 11.0685495 -44.7916834 11.08480372 -46.6875 11.0625 C-47.68136719 11.05347656 -48.67523438 11.04445312 -49.69921875 11.03515625 C-50.83810547 11.01775391 -50.83810547 11.01775391 -52 11 C-52.33 12.65 -52.66 14.3 -53 16 C-53.99 15.67 -54.98 15.34 -56 15 C-56 14.34 -56 13.68 -56 13 C-58.31 13 -60.62 13 -63 13 C-63 34.45 -63 55.9 -63 78 C-41.88 78 -20.76 78 1 78 C1 78.66 1 79.32 1 80 C1.99 80 2.98 80 4 80 C4 53.6 4 27.2 4 0 C4.33 0 4.66 0 5 0 C5 27.06 5 54.12 5 82 C-18.76 82 -42.52 82 -67 82 C-67 58.57 -67 35.14 -67 11 C-56.0446486 8.69361023 -46.33357353 6.70904638 -35.421875 5.56640625 C-28.66129775 4.77767224 -22.01898853 3.29914568 -15.36328125 1.90234375 C-10.21617907 0.82405563 -5.28072626 -0.15531548 0 0 Z " fill="#3295BF" transform="translate(148,166)"/>
<path d="M0 0 C25.74 0 51.48 0 78 0 C78 38.94 78 77.88 78 118 C76.515 117.505 76.515 117.505 75 117 C72.53097937 103.06565055 72.86532463 88.9488962 72.90234375 74.8515625 C72.9042128 72.7416487 72.9056344 70.63173446 72.90663147 68.52182007 C72.91041832 63.01463588 72.92021511 57.50747879 72.93133545 52.00030518 C72.94163273 46.36218634 72.94614677 40.72406306 72.95117188 35.0859375 C72.96184146 24.05727987 72.97887086 13.02864221 73 2 C72.36567551 2.01474869 71.73135101 2.02949738 71.07780457 2.04469299 C64.37617644 2.19909184 57.67438066 2.34336026 50.97241211 2.48217773 C48.48309974 2.53500517 45.99383778 2.59027431 43.50463867 2.64819336 C28.94735391 2.98509973 14.52759657 3.07458273 0 2 C-0.33 2.66 -0.66 3.32 -1 4 C-0.67 2.68 -0.34 1.36 0 0 Z " fill="#EFA73D" transform="translate(189,31)"/>
<path d="M0 0 C24.42 0 48.84 0 74 0 C74 19.28136489 74 19.28136489 73.125 26.6875 C72.43873707 33.05075051 71.88160814 39.40833495 71.4921875 45.796875 C71.45070587 46.4693074 71.40922424 47.14173981 71.3664856 47.83454895 C71.16202155 51.17985379 70.96797973 54.52520685 70.78564453 57.87182617 C70.71200684 59.09877197 70.63836914 60.32571777 70.5625 61.58984375 C70.50191406 62.68159912 70.44132812 63.77335449 70.37890625 64.89819336 C69.98205103 68.14693407 69.13644478 70.93832803 68 74 C65.36 74.33 62.72 74.66 60 75 C60 75.66 60 76.32 60 77 C58.35 77 56.7 77 55 77 C55.66 76.67 56.32 76.34 57 76 C57.495 74.515 57.495 74.515 58 73 C59.98 73 61.96 73 64 73 C63.99476318 72.27820557 63.98952637 71.55641113 63.98413086 70.81274414 C63.96342642 67.56267151 63.95036082 64.31261272 63.9375 61.0625 C63.92912109 59.92619141 63.92074219 58.78988281 63.91210938 57.61914062 C63.90888672 56.53955078 63.90566406 55.45996094 63.90234375 54.34765625 C63.89710693 53.34742432 63.89187012 52.34719238 63.88647461 51.31665039 C64 49 64 49 65 48 C65.2094361 46.02490127 65.36803822 44.04428318 65.5 42.0625 C65.88995873 36.22008253 65.88995873 36.22008253 67 34 C67.39315079 31.1245468 67.74649025 28.25888154 68.0625 25.375 C68.15337891 24.57320312 68.24425781 23.77140625 68.33789062 22.9453125 C68.56197653 20.96392132 68.7814275 18.98200695 69 17 C69.66 17 70.32 17 71 17 C70.505 9.575 70.505 9.575 70 2 C67.69 2 65.38 2 63 2 C62.67 3.32 62.34 4.64 62 6 C62 4.68 62 3.36 62 2 C41.87 2 21.74 2 1 2 C0.67 1.34 0.34 0.68 0 0 Z " fill="#E18928" transform="translate(84,31)"/>
<path d="M0 0 C11.28043154 0.83298427 22.48784921 1.68840757 33.60693359 3.81689453 C39.568431 4.95563987 45.55248019 5.8439973 51.5625 6.6875 C52.49852051 6.81890381 53.43454102 6.95030762 54.39892578 7.08569336 C56.59898192 7.3927115 58.79929812 7.69765059 61 8 C61 8.66 61 9.32 61 10 C63.64 10 66.28 10 69 10 C69 33.1 69 56.2 69 80 C68.01 80 67.02 80 66 80 C65.67 58.22 65.34 36.44 65 14 C60.71 13.67 56.42 13.34 52 13 C51.01 12.67 50.02 12.34 49 12 C49 11.34 49 10.68 49 10 C48.41508789 9.97494385 47.83017578 9.9498877 47.22753906 9.92407227 C44.56815529 9.80777038 41.90909597 9.68519933 39.25 9.5625 C38.32960937 9.52318359 37.40921875 9.48386719 36.4609375 9.44335938 C35.57148438 9.40146484 34.68203125 9.35957031 33.765625 9.31640625 C32.94868164 9.27974854 32.13173828 9.24309082 31.29003906 9.20532227 C27.99616604 8.9099974 25.13307344 8.04435781 22 7 C19.77425665 6.77548542 17.54418481 6.59217122 15.3125 6.4375 C13.54326172 6.31181641 13.54326172 6.31181641 11.73828125 6.18359375 C10.38283203 6.09271484 10.38283203 6.09271484 9 6 C9 5.34 9 4.68 9 4 C7.88625 3.8453125 7.88625 3.8453125 6.75 3.6875 C3.80904737 2.95226184 2.33902391 1.86422205 0 0 Z " fill="#42B0DE" transform="translate(198,167)"/>
<path d="M0 0 C25.41 0 50.82 0 77 0 C77 5.94 77 11.88 77 18 C76.67 18 76.34 18 76 18 C76 12.39 76 6.78 76 1 C51.91 1.33 27.82 1.66 3 2 C3 35.99 3 69.98 3 105 C3.99 105 4.98 105 6 105 C6.12375 105.639375 6.2475 106.27875 6.375 106.9375 C6.58125 107.618125 6.7875 108.29875 7 109 C7.66 109.33 8.32 109.66 9 110 C5.62902617 111.49821059 3.79557881 112 0 112 C0 75.04 0 38.08 0 0 Z " fill="#D27F0E" transform="translate(82,30)"/>
<path d="M0 0 C2.0078125 0.23046875 2.0078125 0.23046875 5.0078125 2.23046875 C7.58207486 2.59780404 10.10883053 2.87994365 12.6953125 3.10546875 C18.71934413 3.7080008 24.41893607 4.69652369 30.2578125 6.29296875 C36.26958363 7.93133505 42.02652153 8.69073714 48.24609375 9.02734375 C51.71473909 9.28246335 54.72578683 10.09438294 58.0078125 11.23046875 C60.9778125 12.22046875 63.9478125 13.21046875 67.0078125 14.23046875 C67.0078125 37.66046875 67.0078125 61.09046875 67.0078125 85.23046875 C48.8296088 85.27057756 48.8296088 85.27057756 41.10742188 85.27929688 C35.82901002 85.285285 30.55061543 85.29238447 25.2722168 85.3059082 C21.01880135 85.31673819 16.76540441 85.32274582 12.51197624 85.32534599 C10.88559617 85.32720004 9.25921716 85.33082027 7.63284492 85.33619881 C5.36271057 85.34341073 3.09265365 85.34445963 0.82250977 85.34399414 C-1.11941505 85.34732506 -1.11941505 85.34732506 -3.10057068 85.35072327 C-5.9921875 85.23046875 -5.9921875 85.23046875 -6.9921875 84.23046875 C-7.09258361 81.64946119 -7.12836019 79.09518978 -7.12158203 76.51367188 C-7.12333435 75.70558578 -7.12508667 74.89749969 -7.12689209 74.06492615 C-7.13131126 71.38050215 -7.12837239 68.69614347 -7.125 66.01171875 C-7.12567302 64.15466296 -7.12664303 62.29760725 -7.12789917 60.44055176 C-7.12937623 56.54320438 -7.12722132 52.64587988 -7.12255859 48.74853516 C-7.1168613 43.74112375 -7.12014026 38.73376594 -7.12613106 33.72635651 C-7.12973645 29.89007154 -7.12859819 26.05379938 -7.12600327 22.21751404 C-7.12533394 20.37064101 -7.12616263 18.52376683 -7.12848282 16.67689514 C-7.13100899 14.10032043 -7.12716927 11.52383374 -7.12158203 8.94726562 C-7.12360626 8.17632065 -7.12563049 7.40537567 -7.12771606 6.61106873 C-7.10105752 0.00931854 -6.59857971 0.13391951 0 0 Z M-5.9921875 2.23046875 C-6.01531093 12.77428187 -6.03310259 23.318089 -6.04399967 33.86192226 C-6.0492285 38.75732249 -6.05632614 43.65270543 -6.06762695 48.5480957 C-6.07845584 53.26834853 -6.08446434 57.98858467 -6.08706474 62.70884895 C-6.08891899 64.51385829 -6.09253959 66.31886667 -6.09791756 68.12386894 C-6.10512802 70.64306519 -6.10617844 73.16219165 -6.10571289 75.68139648 C-6.10930817 76.43521103 -6.11290344 77.18902557 -6.11660767 77.96568298 C-6.41778286 81.38601106 -6.41778286 81.38601106 -4.9921875 84.23046875 C-2.81413031 84.32476217 -0.6329747 84.34789413 1.54711914 84.34399414 C2.58807944 84.34417494 2.58807944 84.34417494 3.65006924 84.3443594 C5.90606786 84.34361044 8.16198482 84.33598304 10.41796875 84.328125 C11.80692505 84.32665553 13.1958819 84.32563485 14.58483887 84.32507324 C19.74667183 84.31982099 24.90849296 84.30585989 30.0703125 84.29296875 C47.364375 84.26203125 47.364375 84.26203125 65.0078125 84.23046875 C65.0078125 61.13046875 65.0078125 38.03046875 65.0078125 14.23046875 C62.3678125 14.23046875 59.7278125 14.23046875 57.0078125 14.23046875 C57.0078125 13.57046875 57.0078125 12.91046875 57.0078125 12.23046875 C56.06800537 12.10518799 55.12819824 11.97990723 54.15991211 11.85083008 C21.3612142 7.45120061 21.3612142 7.45120061 5.85131836 3.75512695 C5.00835205 3.55491943 4.16538574 3.35471191 3.296875 3.1484375 C2.58225098 2.97078857 1.86762695 2.79313965 1.13134766 2.61010742 C-1.27653468 2.17963409 -3.55042835 2.20599481 -5.9921875 2.23046875 Z " fill="#284B5A" transform="translate(201.9921875,162.76953125)"/>
<path d="M0 0 C0.99 0.33 1.98 0.66 3 1 C3 1.99 3 2.98 3 4 C3.99 4.33 4.98 4.66 6 5 C6.68346682 6.65984798 7.34588315 8.32836805 8 10 C9.26806415 11.86598047 10.60345039 13.65941077 11.9765625 15.44921875 C13 17 13 17 13 19 C13.66 19 14.32 19 15 19 C15.268125 19.804375 15.53625 20.60875 15.8125 21.4375 C16.4003125 22.7059375 16.4003125 22.7059375 17 24 C17.99 24.33 18.98 24.66 20 25 C20.94921875 27.06640625 20.94921875 27.06640625 21.6875 29.5625 C21.93886719 30.38878906 22.19023437 31.21507812 22.44921875 32.06640625 C22.63097656 32.70449219 22.81273437 33.34257812 23 34 C14.72948557 30.78368883 14.72948557 30.78368883 12.73828125 28.64453125 C10.47788735 26.50604623 8.01918362 25.15682351 5.3125 23.625 C4.25160156 23.01527344 3.19070312 22.40554687 2.09765625 21.77734375 C1.07542969 21.19082031 0.05320313 20.60429687 -1 20 C-3.7391437 18.40320847 -6.366879 16.77229298 -9 15 C-9 14.34 -9 13.68 -9 13 C-10.051875 12.79375 -11.10375 12.5875 -12.1875 12.375 C-16.64407236 11.14310195 -18.35843582 8.68218037 -21 5 C-19.741875 4.979375 -18.48375 4.95875 -17.1875 4.9375 C-16.47980469 4.92589844 -15.77210938 4.91429688 -15.04296875 4.90234375 C-13 5 -13 5 -10 6 C-10 6.99 -10 7.98 -10 9 C-9.071875 9.2165625 -9.071875 9.2165625 -8.125 9.4375 C-6 10 -6 10 -4 11 C-4 10.34 -4 9.68 -4 9 C-3.01 9 -2.02 9 -1 9 C-1.20625 8.2575 -1.4125 7.515 -1.625 6.75 C-2.04408751 3.67669159 -1.61949011 2.57213134 0 0 Z " fill="#DF7F13" transform="translate(241,113)"/>
<path d="M0 0 C1.58409994 0.11487748 3.16728963 0.24234508 4.75 0.375 C6.07257813 0.47941406 6.07257813 0.47941406 7.421875 0.5859375 C10 1 10 1 14 3 C10.37 3 6.74 3 3 3 C3.10733818 12.76158702 3.2199378 22.52309759 3.33933926 32.28454494 C3.39460922 36.81670586 3.44803559 41.34887318 3.49731445 45.88110352 C3.54489811 50.25128548 3.59723848 54.62138648 3.65294075 58.99147224 C3.67339158 60.66248635 3.69210006 62.33352269 3.70907402 64.00457573 C3.73305793 66.3370356 3.7631202 68.66934107 3.79467773 71.00170898 C3.8004332 71.6994191 3.80618866 72.39712921 3.81211853 73.11598206 C3.59440636 76.33793024 3.59440636 76.33793024 5 79 C6.89130903 79.11301372 8.78678805 79.15682633 10.68139648 79.17358398 C11.89613144 79.18707382 13.11086639 79.20056366 14.3624115 79.21446228 C15.01552748 79.21952223 15.66864346 79.22458218 16.34155083 79.22979546 C18.37957315 79.24616184 20.41740769 79.26939701 22.45533752 79.29469299 C28.25081072 79.36559244 34.04636073 79.42563705 39.84204102 79.47680664 C43.38351737 79.50855658 46.92477885 79.54982205 50.46608162 79.59700203 C51.81806646 79.61304708 53.17010085 79.62535706 54.52215385 79.63390923 C56.41125048 79.64603045 58.30024982 79.67120952 60.18920898 79.69702148 C61.26541 79.70732895 62.34161102 79.71763641 63.45042419 79.72825623 C66 80 66 80 68 82 C59.28155997 82.02312611 50.56313044 82.04091646 41.84466648 82.05181217 C37.79674258 82.05704041 33.74883959 82.06413699 29.70092773 82.07543945 C25.79764029 82.08627043 21.89437301 82.09227728 17.9910717 82.09487724 C16.49866353 82.09673111 15.00625652 82.100351 13.51385689 82.10573006 C11.43051861 82.11294331 9.34726469 82.11399083 7.26391602 82.11352539 C6.07588882 82.115746 4.88786163 82.11796661 3.66383362 82.12025452 C1 82 1 82 0 81 C-0.09504251 78.47458998 -0.12557158 75.97662874 -0.11352539 73.45092773 C-0.11367142 72.66074249 -0.11381744 71.87055725 -0.1139679 71.056427 C-0.11326857 68.43212178 -0.10547527 65.80788664 -0.09765625 63.18359375 C-0.09579214 61.36898335 -0.0943682 59.55437244 -0.09336853 57.73976135 C-0.08954279 52.9540977 -0.07971204 48.1684642 -0.06866455 43.3828125 C-0.05845163 38.50325936 -0.05387117 33.62370136 -0.04882812 28.74414062 C-0.03808982 19.16274714 -0.02101273 9.58137607 0 0 Z " fill="#2A88B2" transform="translate(196,165)"/>
<path d="M0 0 C0.33 0 0.66 0 1 0 C1 27.06 1 54.12 1 82 C-22.76 82 -46.52 82 -71 82 C-71 58.57 -71 35.14 -71 11 C-70.01 11.33 -69.02 11.66 -68 12 C-68.00222061 12.80988373 -68.00444122 13.61976746 -68.00672913 14.45419312 C-68.02674377 22.07653267 -68.04198014 29.69885954 -68.05181217 37.32121849 C-68.05703678 41.2401987 -68.0641268 45.15915726 -68.07543945 49.078125 C-68.08628329 52.85822386 -68.09228002 56.63830186 -68.09487724 60.41841507 C-68.09672878 61.86254836 -68.10034424 63.30668047 -68.10573006 64.7508049 C-68.1129602 66.76924277 -68.11340823 68.78770153 -68.11352539 70.80615234 C-68.115746 71.95642914 -68.11796661 73.10670593 -68.12025452 74.2918396 C-68.18552097 76.96820459 -68.18552097 76.96820459 -67 79 C-33.835 79.495 -33.835 79.495 0 80 C0 53.6 0 27.2 0 0 Z " fill="#275C75" transform="translate(152,166)"/>
<path d="M0 0 C3.48354375 5.22531563 4.30934332 10.8131337 4 17 C4.66 17 5.32 17 6 17 C6.65341008 20.29020811 7.29628521 23.58239533 7.9375 26.875 C8.11990234 27.7928125 8.30230469 28.710625 8.49023438 29.65625 C9.55147056 35.13608774 10.3291068 40.53906287 10.75610352 46.10595703 C10.80504475 48.0087139 10.80504475 48.0087139 12 49 C12.28648879 51.71027491 12.44835421 54.42089608 12.62109375 57.140625 C13.0080236 60.0605492 13.87789563 62.29348427 15 65 C15.061875 66.134375 15.12375 67.26875 15.1875 68.4375 C16.31815452 73.3949852 18.88884153 75.23385017 23 78 C26.00007271 79.70855022 26.00007271 79.70855022 29 81 C32.3125 82.5 32.3125 82.5 35 84 C35.33 84.99 35.66 85.98 36 87 C27.38634808 85.04235184 17.43819654 81.19245349 12 74 C8.49214221 67.32284443 7.5698305 60.19880861 6.375 52.8125 C6.26572174 52.15191589 6.15644348 51.49133179 6.04385376 50.81072998 C4.19302822 39.56001296 3.14760573 28.40589763 3 17 C2.34 17 1.68 17 1 17 C0.67 11.39 0.34 5.78 0 0 Z " fill="#BC6D16" transform="translate(184,31)"/>
<path d="M0 0 C0.66 0 1.32 0 2 0 C2 39.93 2 79.86 2 121 C0.35 120.67 -1.3 120.34 -3 120 C-2.505 119.01 -2.505 119.01 -2 118 C-1.34 118.33 -0.68 118.66 0 119 C0 79.73 0 40.46 0 0 Z " fill="#593D20" transform="translate(267,30)"/>
<path d="M0 0 C1.32 0 2.64 0 4 0 C4 26.4 4 52.8 4 80 C3.01 80 2.02 80 1 80 C1 54.92 1 29.84 1 4 C0.34 4 -0.32 4 -1 4 C-0.67 2.68 -0.34 1.36 0 0 Z " fill="#61B6DA" transform="translate(148,166)"/>
<path d="M0 0 C26.07 0 52.14 0 79 0 C79 2.31 79 4.62 79 7 C78.67 7 78.34 7 78 7 C78 5.02 78 3.04 78 1 C52.59 1 27.18 1 1 1 C1 37.96 1 74.92 1 113 C4.96 112.01 4.96 112.01 9 111 C9.495 110.01 9.495 110.01 10 109 C12.5625 108.375 12.5625 108.375 15 108 C15 107.34 15 106.68 15 106 C17.3125 104.3125 17.3125 104.3125 20 103 C21.485 103.495 21.485 103.495 23 104 C22.34 104 21.68 104 21 104 C21 104.66 21 105.32 21 106 C20.34 106 19.68 106 19 106 C18.67 107.32 18.34 108.64 18 110 C17.030625 110.12375 16.06125 110.2475 15.0625 110.375 C13.5465625 110.684375 13.5465625 110.684375 12 111 C11.505 111.99 11.505 111.99 11 113 C5.555 113.495 5.555 113.495 0 114 C0 76.38 0 38.76 0 0 Z " fill="#654410" transform="translate(81,29)"/>
<path d="M0 0 C0.33 0 0.66 0 1 0 C1.33 24.09 1.66 48.18 2 73 C3.98 72.505 3.98 72.505 6 72 C8.25368365 71.90600784 10.50998316 71.8692922 12.765625 71.8671875 C13.75951485 71.86514061 13.75951485 71.86514061 14.77348328 71.86305237 C16.93237294 71.86102624 19.09112433 71.86734431 21.25 71.875 C21.9833255 71.87621857 22.716651 71.87743713 23.47219849 71.87869263 C33.30025774 71.89786527 43.11630534 72.04190289 52.9375 72.4375 C54.43555176 72.49623291 54.43555176 72.49623291 55.96386719 72.55615234 C62.74013809 72.87006905 62.74013809 72.87006905 65 74 C65 74.66 65 75.32 65 76 C56.8201922 75.91571537 48.64060465 75.82087909 40.46108437 75.71247292 C36.66322119 75.66247216 32.86538634 75.61614275 29.06738281 75.578125 C25.40385046 75.54131951 21.740553 75.49497307 18.07722092 75.44193649 C16.67779017 75.42336721 15.27830902 75.40826864 13.87880325 75.39665604 C11.9225205 75.37983757 9.96636619 75.34966647 8.01025391 75.31884766 C6.33813339 75.29886215 6.33813339 75.29886215 4.63223267 75.2784729 C2 75 2 75 0 73 C-0.24050903 69.98812866 -0.24050903 69.98812866 -0.22705078 66.07177734 C-0.22734283 65.35947464 -0.22763489 64.64717194 -0.22793579 63.9132843 C-0.22654016 61.55404566 -0.21096827 59.19512111 -0.1953125 56.8359375 C-0.19158319 55.20211968 -0.18873583 53.56829962 -0.18673706 51.93447876 C-0.1790941 47.63047124 -0.15943999 43.32659832 -0.1373291 39.02264404 C-0.1168849 34.63230205 -0.1077384 30.24193835 -0.09765625 25.8515625 C-0.07619466 17.23431318 -0.04205081 8.61717332 0 0 Z " fill="#2B9ED0" transform="translate(199,170)"/>
<path d="M0 0 C0.77251602 0.00359528 1.54503204 0.00719055 2.34095764 0.01089478 C3.55549622 0.01067574 3.55549622 0.01067574 4.79457092 0.01045227 C7.48380671 0.01115163 10.17297412 0.01894507 12.86219788 0.02676392 C14.72164878 0.02862802 16.58110018 0.03005196 18.44055176 0.03105164 C23.34458258 0.03487746 28.24858398 0.04470829 33.15260315 0.05575562 C38.15280255 0.06596836 43.15300669 0.07054896 48.1532135 0.07559204 C57.97158583 0.0863305 67.78993629 0.10340769 77.60829163 0.12442017 C77.60829163 0.45442017 77.60829163 0.78442017 77.60829163 1.12442017 C50.54829163 1.45442017 23.48829163 1.78442017 -4.39170837 2.12442017 C-4.39170837 7.73442017 -4.39170837 13.34442017 -4.39170837 19.12442017 C-3.73170837 19.12442017 -3.07170837 19.12442017 -2.39170837 19.12442017 C-2.28213806 20.38254517 -2.17256775 21.64067017 -2.05967712 22.93692017 C-1.18512347 32.53250783 -0.01681587 41.91345932 1.88563538 51.35879517 C2.82024094 56.22884797 3.46746369 61.11892378 4.08094788 66.03848267 C5.16056923 72.35626688 6.79546801 75.81820957 11.60829163 80.12442017 C9.35829163 80.43692017 9.35829163 80.43692017 6.60829163 80.12442017 C1.96846205 75.87268042 1.85540106 71.55094352 1.48329163 65.62442017 C1.10335514 60.34572808 0.66668864 56.03596208 -1.39170837 51.12442017 C-1.81008155 48.40636174 -2.16820605 45.73012063 -2.45420837 42.99942017 C-3.02871119 37.486773 -3.02871119 37.486773 -4.39170837 32.12442017 C-4.60599534 30.44762905 -4.77938569 28.76543399 -4.92686462 27.08145142 C-5.01387634 26.08951782 -5.10088806 25.09758423 -5.1905365 24.07559204 C-5.27754822 23.03983032 -5.36455994 22.0040686 -5.45420837 20.93692017 C-5.54508728 19.92049438 -5.63596619 18.9040686 -5.729599 17.85684204 C-6.21001396 12.26163322 -6.59628579 6.74040014 -6.39170837 1.12442017 C-4.63731674 -0.62997146 -2.33673382 0.00459054 0 0 Z " fill="#5B3A0E" transform="translate(189.39170837402344,28.875579833984375)"/>
<path d="M0 0 C0.33 0 0.66 0 1 0 C1.38056676 18.3940599 0.20799494 36.65678958 -1 55 C-1.66 55 -2.32 55 -3 55 C-3.185625 56.36125 -3.185625 56.36125 -3.375 57.75 C-5.29477073 61.58954145 -6.11970829 61.750562 -10 63.1875 C-11.3303125 63.61095703 -11.3303125 63.61095703 -12.6875 64.04296875 C-15.32387782 64.8827288 -15.32387782 64.8827288 -17 68 C-18.2065625 68.2165625 -18.2065625 68.2165625 -19.4375 68.4375 C-22.13631314 68.72233681 -22.13631314 68.72233681 -23.3203125 70.94140625 C-25.50270076 73.61610071 -27.09773917 73.81120265 -30.4375 74.5 C-34.96406494 75.43610595 -36.84940708 76.66140874 -40 80 C-41.96484375 81.01171875 -41.96484375 81.01171875 -43.9375 81.6875 C-44.62714844 81.9246875 -45.31679687 82.161875 -46.02734375 82.40625 C-48.3309904 83.09962483 -50.62293021 83.62858285 -53 84 C-49.76753326 79.88595143 -45.92171024 78.62233364 -41.14453125 76.9296875 C-38.83228776 76.20020367 -38.83228776 76.20020367 -38 74 C-35.61988578 72.72923618 -33.25996771 71.56263918 -30.8125 70.4375 C-29.8215332 69.96280273 -29.8215332 69.96280273 -28.81054688 69.47851562 C-24.87797385 67.65004386 -21.35650404 66.49459533 -17 66 C-16.505 64.515 -16.505 64.515 -16 63 C-12.92677052 60.04059383 -10.17847455 59.47482665 -6 59 C-3.79153139 51.66604383 -3.42109626 44.43347898 -3 36.8125 C-2.26665897 24.51101562 -1.27175308 12.25753497 0 0 Z " fill="#3D2308" transform="translate(157,48)"/>
<path d="M0 0 C25.41 0 50.82 0 77 0 C77 5.94 77 11.88 77 18 C76.67 18 76.34 18 76 18 C76 12.39 76 6.78 76 1 C51.25 1 26.5 1 1 1 C1.33 36.64 1.66 72.28 2 109 C4.31 109 6.62 109 9 109 C8.505 109.99 8.505 109.99 8 111 C5.36 111.33 2.72 111.66 0 112 C0 75.04 0 38.08 0 0 Z " fill="#A1691E" transform="translate(82,30)"/>
<path d="M0 0 C1.65 0 3.3 0 5 0 C5 23.1 5 46.2 5 70 C4.01 70 3.02 70 2 70 C1.98969254 69.18202942 1.97938507 68.36405884 1.96876526 67.52130127 C1.87077158 59.81121627 1.76825445 52.10121096 1.66066074 44.39125443 C1.60550579 40.4275308 1.55209777 36.4637997 1.50268555 32.5 C1.4549323 28.67444278 1.40258573 24.84897343 1.34705925 21.02352142 C1.3266853 19.56432026 1.30796414 18.10509506 1.29092598 16.64585114 C1.26677183 14.60137754 1.23673287 12.55706852 1.20532227 10.51269531 C1.18977798 9.34909485 1.1742337 8.18549438 1.15821838 6.9866333 C1.02544747 4.48036303 0.73017088 2.38753779 0 0 Z " fill="#63B2D4" transform="translate(262,177)"/>
<path d="M0 0 C2.0078125 0.23046875 2.0078125 0.23046875 5.0078125 2.23046875 C8.65101498 2.75041043 12.27210396 3.11469127 15.93554688 3.44140625 C21.80633539 4.02899164 21.80633539 4.02899164 24.0078125 6.23046875 C21.63151439 6.14097181 19.25786698 6.03387841 16.8828125 5.91796875 C16.23699219 5.89541016 15.59117187 5.87285156 14.92578125 5.84960938 C7.58392879 5.46503615 1.49213827 3.83425284 -5.9921875 2.23046875 C-5.6621875 28.96046875 -5.3321875 55.69046875 -4.9921875 83.23046875 C18.1078125 83.56046875 41.2078125 83.89046875 65.0078125 84.23046875 C65.0078125 84.56046875 65.0078125 84.89046875 65.0078125 85.23046875 C55.76783698 85.25359399 46.52787136 85.27138476 37.28787327 85.28228092 C32.99781335 85.28750936 28.70777317 85.29460628 24.41772461 85.3059082 C20.2810185 85.3167385 16.14433142 85.32274589 12.00761223 85.32534599 C10.42588946 85.32719999 8.84416779 85.33082011 7.26245308 85.33619881 C5.05458412 85.34341115 2.84679477 85.34445961 0.63891602 85.34399414 C-1.24971413 85.34732506 -1.24971413 85.34732506 -3.17649841 85.35072327 C-5.9921875 85.23046875 -5.9921875 85.23046875 -6.9921875 84.23046875 C-7.09258361 81.64946119 -7.12836019 79.09518978 -7.12158203 76.51367188 C-7.12333435 75.70558578 -7.12508667 74.89749969 -7.12689209 74.06492615 C-7.13131126 71.38050215 -7.12837239 68.69614347 -7.125 66.01171875 C-7.12567302 64.15466296 -7.12664303 62.29760725 -7.12789917 60.44055176 C-7.12937623 56.54320438 -7.12722132 52.64587988 -7.12255859 48.74853516 C-7.1168613 43.74112375 -7.12014026 38.73376594 -7.12613106 33.72635651 C-7.12973645 29.89007154 -7.12859819 26.05379938 -7.12600327 22.21751404 C-7.12533394 20.37064101 -7.12616263 18.52376683 -7.12848282 16.67689514 C-7.13100899 14.10032043 -7.12716927 11.52383374 -7.12158203 8.94726562 C-7.12360626 8.17632065 -7.12563049 7.40537567 -7.12771606 6.61106873 C-7.10105752 0.00931854 -6.59857971 0.13391951 0 0 Z " fill="#144459" transform="translate(201.9921875,162.76953125)"/>
<path d="M0 0 C2.40335662 3.60503493 2.3798573 6.37675486 2.484375 10.5546875 C2.5084845 11.29324982 2.53259399 12.03181213 2.55743408 12.79275513 C2.60569437 14.35437319 2.64909398 15.91614795 2.68798828 17.47802734 C2.74960604 19.85977203 2.83273939 22.24009085 2.91796875 24.62109375 C2.96224199 26.14058755 3.00525204 27.66011879 3.046875 29.1796875 C3.07279724 29.88817841 3.09871948 30.59666931 3.12542725 31.32662964 C3.20786715 35.35740814 2.84233671 38.39428388 1 42 C0.505 42.495 0.505 42.495 0 43 C-0.16023562 45.88252645 -0.25954029 48.74378527 -0.31640625 51.62890625 C-0.33718735 52.49313705 -0.35796844 53.35736786 -0.37937927 54.24778748 C-0.44497114 57.01927445 -0.50380418 59.79085921 -0.5625 62.5625 C-0.60567608 64.43685923 -0.64929006 66.31120843 -0.69335938 68.18554688 C-0.80066227 72.79026336 -0.90190215 77.39507858 -1 82 C-1.33 82 -1.66 82 -2 82 C-2 55.27 -2 28.54 -2 1 C-1.34 0.67 -0.68 0.34 0 0 Z " fill="#1F2428" transform="translate(155,165)"/>
<path d="M0 0 C-0.33 1.32 -0.66 2.64 -1 4 C-3.13297453 4.48163941 -5.26650237 4.96092479 -7.40234375 5.4296875 C-9.00058401 5.78057935 -10.59734007 6.13842105 -12.19140625 6.5078125 C-18.69123585 7.93212299 -25.23026064 8.64241643 -31.84350586 9.30273438 C-35.04801655 9.62974629 -37.93320175 9.97773392 -41 11 C-42.89470816 11.0685495 -44.7916834 11.08480372 -46.6875 11.0625 C-47.68136719 11.05347656 -48.67523438 11.04445312 -49.69921875 11.03515625 C-50.83810547 11.01775391 -50.83810547 11.01775391 -52 11 C-52.33 12.65 -52.66 14.3 -53 16 C-53.99 15.67 -54.98 15.34 -56 15 C-56 14.34 -56 13.68 -56 13 C-57.65 13 -59.3 13 -61 13 C-57.61645552 11.09260973 -54.27713656 10.23265257 -50.5 9.375 C-49.3759375 9.11460937 -48.251875 8.85421875 -47.09375 8.5859375 C-44 8 -44 8 -40 8 C-40 7.34 -40 6.68 -40 6 C-38.73027344 5.81824219 -37.46054688 5.63648438 -36.15234375 5.44921875 C-26.72229373 4.07816028 -17.37861998 2.57969933 -8.06640625 0.55078125 C-5.29102447 0.05227318 -2.80962738 -0.11028444 0 0 Z " fill="#39A9DA" transform="translate(148,166)"/>
<path d="M0 0 C1.258125 -0.020625 2.51625 -0.04125 3.8125 -0.0625 C4.52019531 -0.07410156 5.22789062 -0.08570312 5.95703125 -0.09765625 C8 0 8 0 11 1 C11 1.99 11 2.98 11 4 C11.598125 4.12375 12.19625 4.2475 12.8125 4.375 C15 5 15 5 18 7 C18 7.66 18 8.32 18 9 C18.763125 9.0825 19.52625 9.165 20.3125 9.25 C23.54715191 10.15269355 24.35099265 11.13593461 26 14 C26 14.66 26 15.32 26 16 C27.98 16.33 29.96 16.66 32 17 C32 17.99 32 18.98 32 20 C33.3921875 20.0928125 33.3921875 20.0928125 34.8125 20.1875 C38 21 38 21 39.8125 23.4375 C40.4003125 24.7059375 40.4003125 24.7059375 41 26 C41.495 26.99 41.495 26.99 42 28 C36.49282172 26.49804229 36.49282172 26.49804229 34.15625 24.13671875 C31.71091819 21.71353668 29.24923662 20.24471432 26.25 18.5625 C25.198125 17.96179688 24.14625 17.36109375 23.0625 16.7421875 C21.5465625 15.87980469 21.5465625 15.87980469 20 15 C17.26003887 13.40447386 14.63317019 11.77232609 12 10 C12 9.34 12 8.68 12 8 C10.4221875 7.690625 10.4221875 7.690625 8.8125 7.375 C4.35592764 6.14310195 2.64156418 3.68218037 0 0 Z " fill="#BE7316" transform="translate(220,118)"/>
<path d="M0 0 C1.79210776 3.11260821 2.31478453 5.61934317 2.5625 9.1875 C2.54989247 12.40003798 2.54989247 12.40003798 4 15 C4.28648879 17.71027491 4.44835421 20.42089608 4.62109375 23.140625 C5.0080236 26.0605492 5.87789563 28.29348427 7 31 C7.061875 32.134375 7.12375 33.26875 7.1875 34.4375 C8.31815452 39.3949852 10.88884153 41.23385017 15 44 C18.00007271 45.70855022 18.00007271 45.70855022 21 47 C24.3125 48.5 24.3125 48.5 27 50 C27.33 50.99 27.66 51.98 28 53 C19.9998299 51.18177952 10.48856518 48.16750304 5.875 41 C4.8671875 39.125 4.8671875 39.125 4 37 C3.65453125 36.17371094 3.3090625 35.34742188 2.953125 34.49609375 C1.56508252 29.40470844 1.2634505 24.31294974 0.875 19.0625 C0.78863281 18.00353516 0.70226562 16.94457031 0.61328125 15.85351562 C0.19666723 10.55325944 -0.10587164 5.31626898 0 0 Z " fill="#CB7717" transform="translate(192,65)"/>
<path d="M0 0 C1.32 0 2.64 0 4 0 C4.23220772 9.84302726 3.89459639 19.45962696 2.85205078 29.25097656 C2.27755899 34.76092034 1.82924103 40.2674301 1.4921875 45.796875 C1.45070587 46.4693074 1.40922424 47.14173981 1.3664856 47.83454895 C1.16202155 51.17985379 0.96797973 54.52520685 0.78564453 57.87182617 C0.71200684 59.09877197 0.63836914 60.32571777 0.5625 61.58984375 C0.50191406 62.68159912 0.44132813 63.77335449 0.37890625 64.89819336 C-0.01794897 68.14693407 -0.86355522 70.93832803 -2 74 C-2.66 74 -3.32 74 -4 74 C-4.24615385 58.49230769 -4.24615385 58.49230769 -2 54 C-1.70434395 51.67187099 -1.46270644 49.33680896 -1.24609375 47 C-1.18073929 46.29593018 -1.11538483 45.59186035 -1.04804993 44.86645508 C-0.83864958 42.57812183 -0.63709586 40.28920821 -0.4375 38 C-0.36930054 37.22833496 -0.30110107 36.45666992 -0.23083496 35.66162109 C2.62412633 17.41568488 2.62412633 17.41568488 0 0 Z " fill="#C89353" transform="translate(154,31)"/>
<path d="M0 0 C1.65 0 3.3 0 5 0 C3.68 0.33 2.36 0.66 1 1 C1.1073993 11.00508136 1.22001175 21.010089 1.33933926 31.01503563 C1.3945786 35.66038996 1.44800022 40.30575057 1.49731445 44.95117188 C1.54494309 49.43158181 1.59728535 53.91191382 1.65294075 58.39223099 C1.67337111 60.10428561 1.69208306 61.81636161 1.70907402 63.52845383 C1.73310298 65.920578 1.7631595 68.3125543 1.79467773 70.70458984 C1.8004332 71.41740616 1.80618866 72.13022247 1.81211853 72.86463928 C1.82056111 76.55649938 1.82056111 76.55649938 3 80 C24.45 80.33 45.9 80.66 68 81 C68 81.33 68 81.66 68 82 C59.28155997 82.02312611 50.56313044 82.04091646 41.84466648 82.05181217 C37.79674258 82.05704041 33.74883959 82.06413699 29.70092773 82.07543945 C25.79764029 82.08627043 21.89437301 82.09227728 17.9910717 82.09487724 C16.49866353 82.09673111 15.00625652 82.100351 13.51385689 82.10573006 C11.43051861 82.11294331 9.34726469 82.11399083 7.26391602 82.11352539 C6.07588882 82.115746 4.88786163 82.11796661 3.66383362 82.12025452 C1 82 1 82 0 81 C-0.09504251 78.47458998 -0.12557158 75.97662874 -0.11352539 73.45092773 C-0.11367142 72.66074249 -0.11381744 71.87055725 -0.1139679 71.056427 C-0.11326857 68.43212178 -0.10547527 65.80788664 -0.09765625 63.18359375 C-0.09579214 61.36898335 -0.0943682 59.55437244 -0.09336853 57.73976135 C-0.08954279 52.9540977 -0.07971204 48.1684642 -0.06866455 43.3828125 C-0.05845163 38.50325936 -0.05387117 33.62370136 -0.04882812 28.74414062 C-0.03808982 19.16274714 -0.02101273 9.58137607 0 0 Z " fill="#256989" transform="translate(196,165)"/>
<path d="M0 0 C0 0.33 0 0.66 0 1 C-0.58378418 1.08040527 -1.16756836 1.16081055 -1.76904297 1.24365234 C-4.47146759 1.61767005 -7.17322565 1.99631465 -9.875 2.375 C-11.25171875 2.56449219 -11.25171875 2.56449219 -12.65625 2.7578125 C-18.06179375 3.51915669 -23.38542443 4.43582485 -28.71533203 5.61962891 C-31 6 -31 6 -36 6 C-36 29.1 -36 52.2 -36 76 C-36.33 76 -36.66 76 -37 76 C-37.04627898 66.64692389 -37.08184653 57.29388701 -37.10362434 47.94072151 C-37.114075 43.59797251 -37.12825747 39.25530167 -37.15087891 34.91259766 C-37.17256174 30.72401025 -37.18455896 26.53549816 -37.18975449 22.34685898 C-37.19345847 20.7464161 -37.20069113 19.14597749 -37.21146011 17.54556656 C-37.22591463 15.30909468 -37.22798051 13.07293663 -37.22705078 10.83642578 C-37.231492 9.56179474 -37.23593323 8.2871637 -37.24050903 6.97390747 C-37 4 -37 4 -35 2 C-33.06738281 1.58935547 -33.06738281 1.58935547 -30.703125 1.3671875 C-29.83260498 1.2832373 -28.96208496 1.19928711 -28.06518555 1.11279297 C-27.13617432 1.03432129 -26.20716309 0.95584961 -25.25 0.875 C-23.83811401 0.74762451 -23.83811401 0.74762451 -22.39770508 0.61767578 C-14.9120824 -0.01692626 -7.51283597 -0.22727907 0 0 Z " fill="#0C2E3C" transform="translate(117,171)"/>
<path d="M0 0 C9.09228651 -0.06942079 18.18448221 -0.12277071 27.27697563 -0.15543652 C31.49871028 -0.17111216 35.72026402 -0.19238472 39.94189453 -0.22631836 C44.01378286 -0.25884463 48.08549685 -0.2768387 52.15750504 -0.28463173 C53.71330639 -0.29018741 55.26909788 -0.30103596 56.82482529 -0.31719017 C58.99915149 -0.33887574 61.17275154 -0.34197077 63.34716797 -0.34057617 C64.58626923 -0.34723801 65.82537048 -0.35389984 67.10202026 -0.36076355 C68.53652023 -0.18218559 68.53652023 -0.18218559 70 0 C70.99 1.485 70.99 1.485 72 3 C71.34 3.99 70.68 4.98 70 6 C70 4.68 70 3.36 70 2 C67.69 2 65.38 2 63 2 C62.67 3.32 62.34 4.64 62 6 C62 4.68 62 3.36 62 2 C41.87 2 21.74 2 1 2 C0.67 1.34 0.34 0.68 0 0 Z " fill="#F6A22C" transform="translate(84,31)"/>
<path d="M0 0 C0.33 0.99 0.66 1.98 1 3 C1.8971875 2.505 1.8971875 2.505 2.8125 2 C5 1 5 1 8 1 C8 1.66 8 2.32 8 3 C8.83679291 2.51202438 8.83679291 2.51202438 9.69049072 2.01419067 C12.31653009 0.86099997 14.09414989 0.75821727 16.95214844 0.77294922 C17.93286316 0.77310028 18.91357788 0.77325134 19.92401123 0.77340698 C21.5007663 0.78889084 21.5007663 0.78889084 23.109375 0.8046875 C24.73229462 0.80893234 24.73229462 0.80893234 26.38800049 0.81326294 C29.84211304 0.82445391 33.29596588 0.8495568 36.75 0.875 C39.09244417 0.88503119 41.43489241 0.8941568 43.77734375 0.90234375 C49.51831771 0.9243897 55.2591403 0.95785666 61 1 C61 1.99 61 2.98 61 4 C40.87 4 20.74 4 0 4 C0 2.68 0 1.36 0 0 Z " fill="#2BA3D6" transform="translate(85,240)"/>
<path d="M0 0 C-2.82967892 1.53884929 -5.39421917 2.43126064 -8.546875 3.0703125 C-9.81337891 3.33134766 -9.81337891 3.33134766 -11.10546875 3.59765625 C-11.97816406 3.77167969 -12.85085937 3.94570312 -13.75 4.125 C-14.63816406 4.30675781 -15.52632812 4.48851562 -16.44140625 4.67578125 C-18.62663271 5.12222537 -20.81278017 5.56344566 -23 6 C-22.99476318 6.69520752 -22.98952637 7.39041504 -22.98413086 8.10668945 C-22.85165041 28.75854746 -23.31172775 49.36098518 -24 70 C-24.33 70 -24.66 70 -25 70 C-25 48.55 -25 27.1 -25 5 C-16.7583013 0.87915065 -9.15088499 -0.34531641 0 0 Z " fill="#2D8BB5" transform="translate(108,173)"/>
<path d="M0 0 C0.33 0 0.66 0 1 0 C1.04898438 0.66644531 1.09796875 1.33289062 1.1484375 2.01953125 C1.69709427 8.7831449 2.67903311 15.34730445 4 22 C4.17789063 22.92683594 4.35578125 23.85367188 4.5390625 24.80859375 C5.21659975 28.2923487 5.87635719 31.62907157 7 35 C7.06970052 37.39490986 7.08448003 39.79167691 7.0625 42.1875 C7.05347656 43.45980469 7.04445312 44.73210937 7.03515625 46.04296875 C7.02355469 47.01878906 7.01195312 47.99460938 7 49 C6.55011719 48.51917969 6.10023438 48.03835937 5.63671875 47.54296875 C3.77454599 45.78745983 2.48674399 45.42874896 0 45 C-0.24838076 41.43987579 -0.35409333 39.54475897 1.625 36.5 C2.07875 35.675 2.5325 34.85 3 34 C2.35328746 31.99345886 1.68300809 29.99447848 1 28 C-0.12656804 18.72175569 -0.14166591 9.33420909 0 0 Z " fill="#1F1304" transform="translate(184,50)"/>
<path d="M0 0 C0.99 0.33 1.98 0.66 3 1 C3 21.79 3 42.58 3 64 C2.34 64 1.68 64 1 64 C0.85573461 56.97489031 0.71355443 49.94974053 0.57275391 42.92456055 C0.52471991 40.53978544 0.47622654 38.15501953 0.42724609 35.77026367 C0.35650768 32.32212668 0.28747812 28.87395883 0.21875 25.42578125 C0.19687622 24.37731522 0.17500244 23.32884918 0.15246582 22.24861145 C0.00689465 14.83162139 -0.02370266 7.41831985 0 0 Z " fill="#3BB2E2" transform="translate(261,180)"/>
<path d="M0 0 C0.33 0 0.66 0 1 0 C1 31.68 1 63.36 1 96 C2.485 95.01 2.485 95.01 4 94 C4.99 94.33 5.98 94.66 7 95 C6.34 95.99 5.68 96.98 5 98 C4.34 98 3.68 98 3 98 C3 98.99 3 99.98 3 101 C2.01 101 1.02 101 0 101 C0 67.67 0 34.34 0 0 Z " fill="#EF900C" transform="translate(85,34)"/>
<path d="M0 0 C0.66 0.33 1.32 0.66 2 1 C1.99214478 2.5634314 1.99214478 2.5634314 1.98413086 4.15844727 C1.96575411 8.10033273 1.95445119 12.04221459 1.94506836 15.98413086 C1.9401016 17.67619467 1.93332592 19.36825434 1.92456055 21.06030273 C1.87531425 30.82555445 2.03432935 40.47446807 2.88110352 50.20678711 C3 53 3 53 2 55 C1.96898442 58.57565316 2.06774532 62.14038891 2.16015625 65.71484375 C2 69 2 69 0 72 C-0.66 71.67 -1.32 71.34 -2 71 C-1.505 70.505 -1.505 70.505 -1 70 C-0.87598086 67.82268611 -0.8219849 65.64136546 -0.79467773 63.46069336 C-0.78477814 62.77779739 -0.77487854 62.09490143 -0.76467896 61.39131165 C-0.73298065 59.12419147 -0.70827387 56.85705031 -0.68359375 54.58984375 C-0.6630314 53.02184999 -0.64203512 51.45386187 -0.62062073 49.88587952 C-0.56532576 45.75129752 -0.51594938 41.61666489 -0.46777344 37.48199463 C-0.41761247 33.26594517 -0.36189826 29.04996957 -0.30664062 24.83398438 C-0.1989683 16.55605197 -0.09754365 8.27805792 0 0 Z M-6 72 C-4.02 72.495 -4.02 72.495 -2 73 C-3.65 73.33 -5.3 73.66 -7 74 C-6.67 73.34 -6.34 72.68 -6 72 Z " fill="#1B2226" transform="translate(269,178)"/>
<path d="M0 0 C11.28043154 0.83298427 22.48784921 1.68840757 33.60693359 3.81689453 C39.568431 4.95563987 45.55248019 5.8439973 51.5625 6.6875 C52.49852051 6.81890381 53.43454102 6.95030762 54.39892578 7.08569336 C56.59898192 7.3927115 58.79929812 7.69765059 61 8 C61 8.33 61 8.66 61 9 C55.13042765 9.20962758 49.50222526 8.79461718 43.6875 8.0625 C42.99398437 7.97564941 42.30046875 7.88879883 41.5859375 7.79931641 C36.46506257 7.12689084 36.46506257 7.12689084 34.14331055 6.4934082 C31.46544499 5.87694092 28.87619894 5.72865907 26.1328125 5.5703125 C24.99972656 5.49683594 23.86664063 5.42335937 22.69921875 5.34765625 C20.32466214 5.19973305 17.94964256 5.05905585 15.57421875 4.92578125 C4.89483352 4.21058973 4.89483352 4.21058973 0 1 C0 0.67 0 0.34 0 0 Z " fill="#4B9FC1" transform="translate(198,167)"/>
<path d="M0 0 C3.30107786 0.69092327 6.10331119 1.88670551 9.125 3.375 C9.99382812 3.79523438 10.86265625 4.21546875 11.7578125 4.6484375 C14 6 14 6 16 9 C18.30144109 10.07136051 20.6340213 11.07989717 23 12 C23 12.66 23 13.32 23 14 C23.94875 14.268125 24.8975 14.53625 25.875 14.8125 C29 16 29 16 31 19 C28.36 18.67 25.72 18.34 23 18 C22.67 17.01 22.34 16.02 22 15 C19.525 14.505 19.525 14.505 17 14 C17 13.34 17 12.68 17 12 C16.34 12 15.68 12 15 12 C14.67 11.34 14.34 10.68 14 10 C11.47266765 9.34444881 11.47266765 9.34444881 9 9 C9 8.34 9 7.68 9 7 C7.35 6.67 5.7 6.34 4 6 C4 5.34 4 4.68 4 4 C2.35 4.33 0.7 4.66 -1 5 C-0.67 3.35 -0.34 1.7 0 0 Z " fill="#311706" transform="translate(209,114)"/>
<path d="M0 0 C0.33 0 0.66 0 1 0 C1 20.13 1 40.26 1 61 C3.64 60.34 6.28 59.68 9 59 C9.33 58.34 9.66 57.68 10 57 C12.5625 56.375 12.5625 56.375 15 56 C15 55.34 15 54.68 15 54 C17.3125 52.3125 17.3125 52.3125 20 51 C21.485 51.495 21.485 51.495 23 52 C22.34 52 21.68 52 21 52 C21 52.66 21 53.32 21 54 C20.34 54 19.68 54 19 54 C18.67 55.32 18.34 56.64 18 58 C17.030625 58.12375 16.06125 58.2475 15.0625 58.375 C14.051875 58.58125 13.04125 58.7875 12 59 C11.67 59.66 11.34 60.32 11 61 C5.555 61.495 5.555 61.495 0 62 C0 41.54 0 21.08 0 0 Z " fill="#68430E" transform="translate(81,81)"/>
<path d="M0 0 C0.33 0 0.66 0 1 0 C1.38056676 18.3940599 0.20799494 36.65678958 -1 55 C-1.66 55 -2.32 55 -3 55 C-3.33 55.99 -3.66 56.98 -4 58 C-4.66 57.67 -5.32 57.34 -6 57 C-5.68160156 56.14220947 -5.36320313 55.28441895 -5.03515625 54.40063477 C-4.00227257 51.00746572 -3.63352235 48.12215605 -3.4375 44.58984375 C-3.3638623 43.36152832 -3.29022461 42.13321289 -3.21435547 40.86767578 C-3.14361816 39.57071777 -3.07288086 38.27375977 -3 36.9375 C-2.84074822 34.24579243 -2.67487385 31.55451428 -2.5078125 28.86328125 C-2.46689484 28.19552673 -2.42597717 27.52777222 -2.38381958 26.83978271 C-1.82246758 17.87157818 -0.92718784 8.93651263 0 0 Z " fill="#4F3B21" transform="translate(157,48)"/>
<path d="M0 0 C3.64475185 1.36350429 6.91244487 3.001464 10.25 5 C11.55710938 5.7734375 11.55710938 5.7734375 12.890625 6.5625 C15 8 15 8 16 10 C17.88013106 11.12224855 17.88013106 11.12224855 20.0625 12.125 C20.79597656 12.47820312 21.52945312 12.83140625 22.28515625 13.1953125 C23.13400391 13.59363281 23.13400391 13.59363281 24 14 C24 14.99 24 15.98 24 17 C20.982511 16.66472344 19.42082212 16.45199413 17.3125 14.1875 C14.28260643 11.32138446 11.035626 9.91739293 7.25 8.25 C6.55261719 7.93417969 5.85523438 7.61835938 5.13671875 7.29296875 C3.42810227 6.52058048 1.71453041 5.75917018 0 5 C0 3.35 0 1.7 0 0 Z " fill="#2B1707" transform="translate(240,133)"/>
<path d="M0 0 C-0.66 0.66 -1.32 1.32 -2 2 C-2.99 2 -3.98 2 -5 2 C-5.33 2.99 -5.66 3.98 -6 5 C-7.93359375 5.95703125 -7.93359375 5.95703125 -10.4375 6.8125 C-15.3482243 8.62840812 -19.56563814 11.01347755 -23.96875 13.828125 C-26 15 -26 15 -28 15 C-28 15.66 -28 16.32 -28 17 C-30.64 17.99 -33.28 18.98 -36 20 C-34.95319389 16.96426229 -34.21010707 16.10870757 -31.3046875 14.60546875 C-30.21414062 14.07566406 -29.12359375 13.54585937 -28 13 C-25.9041872 11.72868208 -23.82117947 10.43606681 -21.75 9.125 C-6.4977452 -0.36607015 -6.4977452 -0.36607015 0 0 Z " fill="#C27C2C" transform="translate(124,120)"/>
<path d="M0 0 C8.13496933 -0.3190184 8.13496933 -0.3190184 12 2 C12.72159424 3.64363134 13.39351421 5.31050386 14 7 C14.99 7.33 15.98 7.66 17 8 C17.94921875 10.06640625 17.94921875 10.06640625 18.6875 12.5625 C18.93886719 13.38878906 19.19023437 14.21507812 19.44921875 15.06640625 C19.63097656 15.70449219 19.81273437 16.34257812 20 17 C19.34 17 18.68 17 18 17 C14 12.64705882 14 12.64705882 14 9 C11.03 8.505 11.03 8.505 8 8 C8 7.01 8 6.02 8 5 C7.05125 4.9175 6.1025 4.835 5.125 4.75 C2 4 2 4 0.625 1.9375 C0.41875 1.298125 0.2125 0.65875 0 0 Z " fill="#D67D11" transform="translate(244,130)"/>
<path d="M0 0 C0.7578125 1.6796875 0.7578125 1.6796875 1 4 C-0.6953125 6.4453125 -0.6953125 6.4453125 -3.125 9.125 C-6.96504407 13.5613242 -9.6362051 17.71612604 -11.9296875 23.1015625 C-13 25 -13 25 -16 26 C-14.31431823 19.83287157 -12.3148238 15.84102183 -8 11 C-7.28604902 9.76491691 -6.5982805 8.51432804 -5.9375 7.25 C-4.08636673 4.14487322 -3.35556485 3.07857442 0 2 C0 1.34 0 0.68 0 0 Z M-18 26 C-17.34 26.33 -16.68 26.66 -16 27 C-17.98 29.31 -19.96 31.62 -22 34 C-22 30.09161134 -20.49432124 28.88405893 -18 26 Z " fill="#EB8A0F" transform="translate(153,38)"/>
<path d="M0 0 C0 0.66 0 1.32 0 2 C4.0100934 2.17864631 4.0100934 2.17864631 8 2 C8.66 1.34 9.32 0.68 10 0 C10.495 1.98 10.495 1.98 11 4 C-5.83 4 -22.66 4 -40 4 C-40 3.67 -40 3.34 -40 3 C-39.01604248 2.98018066 -38.03208496 2.96036133 -37.01831055 2.93994141 C-33.36717161 2.86386013 -29.71642991 2.775147 -26.06567383 2.68261719 C-24.48567549 2.64433779 -22.90559031 2.60948303 -21.32543945 2.578125 C-19.05388355 2.53245124 -16.78292491 2.47446216 -14.51171875 2.4140625 C-13.80536789 2.40251129 -13.09901703 2.39096008 -12.3712616 2.37905884 C-7.55573211 2.23418506 -4.70543813 0 0 0 Z " fill="#191512" transform="translate(144,24)"/>
<path d="M0 0 C0 0.66 0 1.32 0 2 C-1.60875 2.61875 -1.60875 2.61875 -3.25 3.25 C-5.75249976 4.3110599 -7.0396492 5.0396492 -9 7 C-11.68002065 9.68002065 -14.46552644 10.71473689 -18 12 C-18.99 12 -19.98 12 -21 12 C-21.33 11.01 -21.66 10.02 -22 9 C-20.35 9 -18.7 9 -17 9 C-17 8.34 -17 7.68 -17 7 C-16.34 7 -15.68 7 -15 7 C-15.33 6.01 -15.66 5.02 -16 4 C-15 3 -15 3 -13.15234375 2.90234375 C-11.1015625 2.93489583 -9.05078125 2.96744792 -7 3 C-7 2.34 -7 1.68 -7 1 C-4.53721199 -0.231394 -2.7204945 -0.07159196 0 0 Z " fill="#BF7624" transform="translate(151,105)"/>
<path d="M0 0 C0.37248367 0.64874084 0.74496735 1.29748169 1.1287384 1.96588135 C2.85541358 4.24673172 2.85541358 4.24673172 5.67655945 4.51898193 C6.75355606 4.52786438 7.83055267 4.53674683 8.94018555 4.54589844 C10.16122482 4.56561707 11.3822641 4.58533569 12.64030457 4.60565186 C13.95912125 4.60688049 15.27793793 4.60810913 16.63671875 4.609375 C18.00008614 4.62435513 19.36343538 4.64108194 20.72676086 4.65948486 C24.31227445 4.70319063 27.89754327 4.72316416 31.48327637 4.73822021 C35.14329523 4.75778004 38.80304928 4.79975115 42.46289062 4.83984375 C49.64185595 4.91518047 56.82071026 4.96545046 64 5 C64 5.33 64 5.66 64 6 C55.80309439 6.0231271 47.60620232 6.04091696 39.40927219 6.05181217 C35.60348423 6.0570402 31.79771852 6.06413638 27.99194336 6.07543945 C24.32207456 6.0862712 20.65222722 6.09227744 16.98234367 6.09487724 C15.57925008 6.09673097 14.17615771 6.1003506 12.7730732 6.10573006 C10.8143032 6.11294419 8.8555118 6.11340809 6.89672852 6.11352539 C5.77976089 6.115746 4.66279327 6.11796661 3.51197815 6.12025452 C1 6 1 6 0 5 C-0.04063832 3.33382885 -0.042721 1.66611905 0 0 Z " fill="#3890B8" transform="translate(198,240)"/>
<path d="M0 0 C0.33 0 0.66 0 1 0 C1.20158308 11.78794384 0.63604836 23.33222887 -0.5 35.0625 C-0.64524412 36.62298069 -0.78977799 38.18352765 -0.93359375 39.74414062 C-1.2809347 43.49690324 -1.63768156 47.24865507 -2 51 C-2.33 51 -2.66 51 -3 51 C-3.19272088 38.64445007 -2.59950448 26.33767475 -2 14 C-1.34 14 -0.68 14 0 14 C0 9.38 0 4.76 0 0 Z " fill="#E0953E" transform="translate(155,34)"/>
<path d="M0 0 C3.98366954 5.97550431 4.43343128 13.30521896 5.125 20.3125 C5.20991699 21.14048096 5.29483398 21.96846191 5.38232422 22.8215332 C5.97184326 28.89168149 6.24672607 34.90038337 6 41 C4.27428639 37.98454253 3.71902341 35.6946087 3.5859375 32.234375 C3.54726562 31.34492187 3.50859375 30.45546875 3.46875 29.5390625 C3.4378125 28.61867188 3.406875 27.69828125 3.375 26.75 C3.33632812 25.81414063 3.29765625 24.87828125 3.2578125 23.9140625 C3.16375156 21.60956946 3.07810601 19.30507987 3 17 C2.34 17 1.68 17 1 17 C0.67 11.39 0.34 5.78 0 0 Z " fill="#955917" transform="translate(184,31)"/>
<path d="M0 0 C4.69007799 1.32284251 8.62022057 3.35472164 12.8125 5.76953125 C14.66142192 6.80954983 16.57591117 7.73167304 18.5 8.625 C21 10 21 10 22 13 C14.75075301 11.35244387 5.46657622 8.58068102 1.140625 2.30078125 C0.76421875 1.54152344 0.3878125 0.78226562 0 0 Z " fill="#905819" transform="translate(198,105)"/>
<path d="M0 0 C0.33 0 0.66 0 1 0 C1.11069824 0.75619629 1.22139648 1.51239258 1.33544922 2.29150391 C1.84303493 5.73685413 2.35893551 9.18091002 2.875 12.625 C3.04902344 13.81480469 3.22304687 15.00460938 3.40234375 16.23046875 C3.57636719 17.38417969 3.75039062 18.53789063 3.9296875 19.7265625 C4.08679199 20.78439941 4.24389648 21.84223633 4.40576172 22.93212891 C5.62210531 29.21174006 7.182234 32.68936726 12 37 C9.75 37.3125 9.75 37.3125 7 37 C2.33907068 32.73833092 2.21357376 28.32350976 1.8125 22.375 C1.67587899 20.67425996 1.53666472 18.97372573 1.39453125 17.2734375 C1.34143799 16.52497559 1.28834473 15.77651367 1.23364258 15.00537109 C1.04541451 12.79571662 1.04541451 12.79571662 0 10 C-0.06802967 8.27204648 -0.08495645 6.54164635 -0.0625 4.8125 C-0.05347656 3.91144531 -0.04445312 3.01039062 -0.03515625 2.08203125 C-0.02355469 1.39496094 -0.01195312 0.70789063 0 0 Z " fill="#663F0F" transform="translate(189,72)"/>
<path d="M0 0 C0 0.66 0 1.32 0 2 C-0.95777344 2.10957031 -1.91554687 2.21914062 -2.90234375 2.33203125 C-11.16672103 3.30782519 -19.33666539 4.50059675 -27.50170898 6.12231445 C-30.81880508 6.75269313 -32.73838759 7.08720414 -36 6 C-24.96188877 0.67482221 -12.11257707 0 0 0 Z " fill="#184154" transform="translate(153,164)"/>
<path d="M0 0 C1.32 0 2.64 0 4 0 C4.24725801 22.94004898 4.24725801 22.94004898 3 30 C2.34 30.33 1.68 30.66 1 31 C1.00523682 30.13197754 1.01047363 29.26395508 1.01586914 28.36962891 C1.03289862 25.15299727 1.04544408 21.93638859 1.05493164 18.71972656 C1.0599643 17.32681523 1.06679098 15.9339092 1.07543945 14.54101562 C1.08755152 12.54038754 1.09270412 10.53972112 1.09765625 8.5390625 C1.10289307 7.33459473 1.10812988 6.13012695 1.11352539 4.88916016 C1.20087891 2.0586323 1.20087891 2.0586323 0 0 Z " fill="#CA9A5E" transform="translate(154,31)"/>
<path d="M0 0 C-4.94201255 3.29467503 -8.91494967 4.26788236 -14.83203125 4.6328125 C-16.12431641 4.71660156 -17.41660156 4.80039063 -18.74804688 4.88671875 C-20.10285398 4.96632657 -21.45767184 5.04575137 -22.8125 5.125 C-24.18689717 5.21147674 -25.56124705 5.2987086 -26.93554688 5.38671875 C-30.28997399 5.5985773 -33.64468901 5.80272205 -37 6 C-36.67 5.34 -36.34 4.68 -36 4 C-33.02617151 3.56744313 -30.11525201 3.24761306 -27.125 3 C-20.7269628 2.4093018 -14.48623827 1.63238084 -8.1796875 0.375 C-5.43276216 -0.09758931 -2.77964034 -0.15025083 0 0 Z " fill="#122025" transform="translate(125,167)"/>
<path d="M0 0 C7.59 0.33 15.18 0.66 23 1 C23 1.66 23 2.32 23 3 C23.66 3.33 24.32 3.66 25 4 C17.49372385 5.25104603 17.49372385 5.25104603 15.15625 4.0625 C12.19621431 2.60393169 9.52933745 2.57176025 6.25 2.375 C4.49429688 2.26285156 4.49429688 2.26285156 2.703125 2.1484375 C1.81109375 2.09945312 0.9190625 2.05046875 0 2 C0 1.34 0 0.68 0 0 Z " fill="#3BB0E3" transform="translate(207,171)"/>
<path d="M0 0 C3.37705625 0.53725895 6.696686 1.11064623 10 2 C10 2.99 10 3.98 10 5 C11.3921875 5.0928125 11.3921875 5.0928125 12.8125 5.1875 C16 6 16 6 17.8125 8.4375 C18.204375 9.283125 18.59625 10.12875 19 11 C19.33 11.66 19.66 12.32 20 13 C14.4985718 11.49961049 14.4985718 11.49961049 12.125 9.12109375 C9.83094623 6.83125699 7.56110396 5.41121263 4.75 3.8125 C3.15194731 2.90031674 1.56371845 1.96986354 0 1 C0 0.67 0 0.34 0 0 Z " fill="#986217" transform="translate(242,133)"/>
<path d="M0 0 C3.3345258 0.69177808 6.14351193 1.9222504 9.1875 3.4375 C10.50814453 4.08525391 10.50814453 4.08525391 11.85546875 4.74609375 C14 6 14 6 15 8 C7.375 7.125 7.375 7.125 4 6 C4 5.34 4 4.68 4 4 C2.35 4.33 0.7 4.66 -1 5 C-0.67 3.35 -0.34 1.7 0 0 Z " fill="#241604" transform="translate(209,114)"/>
<path d="M0 0 C0.33 0 0.66 0 1 0 C1 2.64 1 5.28 1 8 C1.66 8 2.32 8 3 8 C3.10957031 9.05058594 3.21914062 10.10117188 3.33203125 11.18359375 C4.1772613 18.81792967 5.17097428 25.79884363 8 33 C7.01 32.67 6.02 32.34 5 32 C0.88102093 22.24259624 -0.34983721 10.49511621 0 0 Z " fill="#9B5D16" transform="translate(190,72)"/>
<path d="M0 0 C1.258125 -0.04125 2.51625 -0.0825 3.8125 -0.125 C4.52019531 -0.14820313 5.22789062 -0.17140625 5.95703125 -0.1953125 C8 0 8 0 11 2 C14.64320248 2.51994168 18.26429146 2.88422252 21.92773438 3.2109375 C27.79852289 3.79852289 27.79852289 3.79852289 30 6 C19.37681001 5.5951741 9.37430625 4.36999238 -1 2 C-0.67 1.34 -0.34 0.68 0 0 Z " fill="#15313E" transform="translate(196,163)"/>
<path d="M0 0 C2.09715785 3.14573677 2.52004559 5.01456251 3.125 8.6875 C3.29257813 9.68136719 3.46015625 10.67523438 3.6328125 11.69921875 C3.75398437 12.45847656 3.87515625 13.21773437 4 14 C3.32517578 13.27876953 3.32517578 13.27876953 2.63671875 12.54296875 C0.77454599 10.78745983 -0.51325601 10.42874896 -3 10 C-3.36923077 4.58461538 -3.36923077 4.58461538 -1.5 1.625 C-1.005 1.08875 -0.51 0.5525 0 0 Z " fill="#110C10" transform="translate(187,85)"/>
<path d="M0 0 C0 0.66 0 1.32 0 2 C-0.928125 2.433125 -1.85625 2.86625 -2.8125 3.3125 C-5.8901717 4.73156898 -5.8901717 4.73156898 -7.45703125 6.50390625 C-11.11048789 10.0463718 -17.10094284 11.23452232 -22 12 C-18.76753326 7.88595143 -14.92171024 6.62233364 -10.14453125 4.9296875 C-7.83228776 4.20020367 -7.83228776 4.20020367 -7 2 C-2.66666667 0 -2.66666667 0 0 0 Z " fill="#512E0D" transform="translate(126,120)"/>
<path d="M0 0 C0 0.99 0 1.98 0 3 C-0.66 3 -1.32 3 -2 3 C-2 3.66 -2 4.32 -2 5 C-3.32 5.33 -4.64 5.66 -6 6 C-6 6.99 -6 7.98 -6 9 C-7.98 9.66 -9.96 10.32 -12 11 C-12 10.34 -12 9.68 -12 9 C-11.01 8.67 -10.02 8.34 -9 8 C-8.67 5.69 -8.34 3.38 -8 1 C-3.375 -1.125 -3.375 -1.125 0 0 Z " fill="#D47D1E" transform="translate(136,109)"/>
<path d="M0 0 C6.39159719 -0.20804475 11.89307417 -0.15538559 18 2 C19.134375 2.37125 20.26875 2.7425 21.4375 3.125 C22.283125 3.41375 23.12875 3.7025 24 4 C24 4.33 24 4.66 24 5 C21.69 5 19.38 5 17 5 C17 4.34 17 3.68 17 3 C15.28490234 2.92652344 15.28490234 2.92652344 13.53515625 2.8515625 C12.04424527 2.77654811 10.55336108 2.70099972 9.0625 2.625 C8.30775391 2.5940625 7.55300781 2.563125 6.77539062 2.53125 C4.84492605 2.4273685 2.92057919 2.22104386 1 2 C0.67 1.34 0.34 0.68 0 0 Z " fill="#1F4356" transform="translate(242,172)"/>
<path d="M0 0 C0.66 0.33 1.32 0.66 2 1 C-0.25788718 7.6325436 -4.20121828 11.97324765 -9 17 C-9 12.78475431 -6.76377411 10.20136304 -4.5 6.8125 C-4.07074219 6.15830078 -3.64148438 5.50410156 -3.19921875 4.83007812 C-2.13889962 3.21603678 -1.07023847 1.60748119 0 0 Z " fill="#EC8C10" transform="translate(114,93)"/>
<path d="M0 0 C-6.0468867 3.23376984 -12.29825993 3.11757439 -19 3 C-13.72900672 -2.27099328 -6.75886099 -1.00634952 0 0 Z " fill="#10222D" transform="translate(153,163)"/>
<path d="M0 0 C-0.66 0 -1.32 0 -2 0 C-2 0.66 -2 1.32 -2 2 C-2.66 2 -3.32 2 -4 2 C-4.33 3.32 -4.66 4.64 -5 6 C-5.969375 6.12375 -6.93875 6.2475 -7.9375 6.375 C-9.4534375 6.684375 -9.4534375 6.684375 -11 7 C-11.33 7.66 -11.66 8.32 -12 9 C-13.32 8.67 -14.64 8.34 -16 8 C-13.60490662 5.10067643 -11.68754757 4.49831724 -8 4 C-8 3.34 -8 2.68 -8 2 C-3.61016949 -1.20338983 -3.61016949 -1.20338983 0 0 Z " fill="#4B2E0F" transform="translate(104,133)"/>
<path d="M0 0 C-0.33 0.99 -0.66 1.98 -1 3 C-10.405 3.495 -10.405 3.495 -20 4 C-20 3.67 -20 3.34 -20 3 C-17.60530271 2.49395076 -15.20948283 1.99500483 -12.8125 1.5 C-12.13896484 1.35691406 -11.46542969 1.21382812 -10.77148438 1.06640625 C-7.12490207 0.31930158 -3.72351043 -0.17352282 0 0 Z " fill="#3C8EB1" transform="translate(148,166)"/>
<path d="M0 0 C0 0.66 0 1.32 0 2 C-2.70716242 2.90238747 -4.23776768 3.11851302 -7.01171875 3.09765625 C-8.14770508 3.09282227 -8.14770508 3.09282227 -9.30664062 3.08789062 C-10.09232422 3.07951172 -10.87800781 3.07113281 -11.6875 3.0625 C-12.48478516 3.05798828 -13.28207031 3.05347656 -14.10351562 3.04882812 C-16.06904257 3.0370585 -18.03453085 3.01912348 -20 3 C-20 2.67 -20 2.34 -20 2 C-13.25846717 0.74158054 -6.86515862 -0.26404456 0 0 Z " fill="#3D92B7" transform="translate(128,170)"/>
<path d="M0 0 C0.66 0 1.32 0 2 0 C2 1.98 2 3.96 2 6 C2.66 6 3.32 6 4 6 C4 9.63 4 13.26 4 17 C3.01 16.34 2.02 15.68 1 15 C0.61588725 12.390379 0.39706803 9.9941926 0.3125 7.375 C0.27833984 6.66859375 0.24417969 5.9621875 0.20898438 5.234375 C0.12648692 3.49014312 0.06156665 1.74509605 0 0 Z " fill="#1D0F03" transform="translate(180,32)"/>
<path d="M0 0 C-4.91333208 2.54137866 -9.21130425 3.25059716 -14.6875 3.5625 C-15.38939453 3.60568359 -16.09128906 3.64886719 -16.81445312 3.69335938 C-18.54275206 3.7991736 -20.2713511 3.90006581 -22 4 C-15.68598198 -0.20934535 -7.41145544 -0.27967756 0 0 Z " fill="#347597" transform="translate(108,173)"/>
<path d="M0 0 C-0.66 0.66 -1.32 1.32 -2 2 C-2.99 2 -3.98 2 -5 2 C-5.33 2.99 -5.66 3.98 -6 5 C-9.0625 6.1875 -9.0625 6.1875 -12 7 C-11.875 5.1875 -11.875 5.1875 -11 3 C-7.25241255 0.61517162 -4.43651689 -0.39145737 0 0 Z " fill="#B6752B" transform="translate(124,120)"/>
<path d="M0 0 C1.32 0.33 2.64 0.66 4 1 C4 6.28 4 11.56 4 17 C3.67 17 3.34 17 3 17 C2.86722656 16.19175781 2.73445312 15.38351563 2.59765625 14.55078125 C2.42105469 13.48214844 2.24445313 12.41351563 2.0625 11.3125 C1.88847656 10.25675781 1.71445313 9.20101562 1.53515625 8.11328125 C1.06832879 5.39750396 0.55577384 2.69875765 0 0 Z " fill="#CE811B" transform="translate(185,31)"/>
<path d="M0 0 C3.12290635 0.48578543 5.99580359 0.9986012 9 2 C10.6875 4.5625 10.6875 4.5625 12 7 C6.62278626 6.38546129 3.72926853 3.72926853 0 0 Z " fill="#AF6D18" transform="translate(234,126)"/>
<path d="M0 0 C4.9141761 1.81299701 8.1344012 3.41595027 10.5 8.25 C11.02486409 9.48976517 11.53401169 10.73692641 12 12 C11.34 12 10.68 12 10 12 C6 7.64705882 6 7.64705882 6 4 C3.03 3.505 3.03 3.505 0 3 C0 2.01 0 1.02 0 0 Z " fill="#C07618" transform="translate(252,135)"/>
<path d="M0 0 C0.99 0.33 1.98 0.66 3 1 C3 2.65 3 4.3 3 6 C0.03 5.505 0.03 5.505 -3 5 C-2.625 3.0625 -2.625 3.0625 -2 1 C-1.34 0.67 -0.68 0.34 0 0 Z " fill="#151A0D" transform="translate(181,20)"/>
<path d="M0 0 C1.258125 -0.020625 2.51625 -0.04125 3.8125 -0.0625 C4.52019531 -0.07410156 5.22789062 -0.08570313 5.95703125 -0.09765625 C8 0 8 0 11 1 C11.33 1.99 11.66 2.98 12 4 C10.3733152 3.71788123 8.74867104 3.42397625 7.125 3.125 C5.76761719 2.88136719 5.76761719 2.88136719 4.3828125 2.6328125 C2 2 2 2 0 0 Z " fill="#4FAAD5" transform="translate(251,176)"/>
<path d="M0 0 C0.33 0.66 0.66 1.32 1 2 C-3.625 5 -3.625 5 -7 5 C-7.33 5.99 -7.66 6.98 -8 8 C-8.99 8 -9.98 8 -11 8 C-11 7.34 -11 6.68 -11 6 C-10.34 6 -9.68 6 -9 6 C-9 5.34 -9 4.68 -9 4 C-6.03 2.68 -3.06 1.36 0 0 Z " fill="#2A190A" transform="translate(111,129)"/>
<path d="M0 0 C0.66 0 1.32 0 2 0 C0.72278474 4.99275057 -1.17330957 7.57611908 -5 11 C-5.33 10.01 -5.66 9.02 -6 8 C-5.195625 7.236875 -4.39125 6.47375 -3.5625 5.6875 C-0.83200976 3.20569102 -0.83200976 3.20569102 0 0 Z " fill="#F29314" transform="translate(100,112)"/>
<path d="M0 0 C0 0.66 0 1.32 0 2 C-1.43344 2.53190541 -2.87195367 3.05015258 -4.3125 3.5625 C-5.51326172 3.99755859 -5.51326172 3.99755859 -6.73828125 4.44140625 C-9 5 -9 5 -12 4 C-10.35 3.67 -8.7 3.34 -7 3 C-7 2.34 -7 1.68 -7 1 C-4.53721199 -0.231394 -2.7204945 -0.07159196 0 0 Z " fill="#BD7A2D" transform="translate(151,105)"/>
<path d="M0 0 C-4.37384413 2.91589609 -7.70542471 4.30254716 -13 4 C-12.34 3.67 -11.68 3.34 -11 3 C-11 2.34 -11 1.68 -11 1 C-7.26562152 0.12132271 -3.83225427 -0.08912219 0 0 Z " fill="#0E262E" transform="translate(125,167)"/>
<path d="M0 0 C1.32 0 2.64 0 4 0 C4 0.66 4 1.32 4 2 C5.1446875 2.37125 5.1446875 2.37125 6.3125 2.75 C9.2364045 4.10995558 10.30004356 5.31585826 12 8 C8.66666667 6.33333333 5.33333333 4.66666667 2 3 C2 2.34 2 1.68 2 1 C1.34 0.67 0.68 0.34 0 0 Z " fill="#7D4D16" transform="translate(230,125)"/>
<path d="M0 0 C3.35433109 0.94933899 6.69246505 1.89748835 10 3 C10 4.32 10 5.64 10 7 C9.34 7 8.68 7 8 7 C8 6.34 8 5.68 8 5 C7.34 5 6.68 5 6 5 C5.67 4.34 5.34 3.68 5 3 C2.47266765 2.34444881 2.47266765 2.34444881 0 2 C0 1.34 0 0.68 0 0 Z " fill="#1E0F05" transform="translate(218,121)"/>
<path d="M0 0 C-1 3 -1 3 -2.84765625 3.94921875 C-3.57855469 4.19285156 -4.30945313 4.43648438 -5.0625 4.6875 C-6.16271484 5.06455078 -6.16271484 5.06455078 -7.28515625 5.44921875 C-7.85105469 5.63097656 -8.41695313 5.81273438 -9 6 C-6.97377245 1.32409027 -5.29661848 0 0 0 Z " fill="#251A10" transform="translate(127,122)"/>
<path d="M0 0 C0.66 0 1.32 0 2 0 C2.33 0.66 2.66 1.32 3 2 C4.97888961 2.72693904 6.97954558 3.39816251 9 4 C9 4.33 9 4.66 9 5 C6.1875 5.6875 6.1875 5.6875 3 6 C1.125 4.75 1.125 4.75 0 3 C0 2.01 0 1.02 0 0 Z " fill="#180F05" transform="translate(193,106)"/>
<path d="M0 0 C1.32 0 2.64 0 4 0 C4.33 0.66 4.66 1.32 5 2 C5.99 2.33 6.98 2.66 8 3 C9.1875 5.0625 9.1875 5.0625 10 7 C5.04303419 5.76075855 2.88341534 4.21422242 0 0 Z " fill="#8A5112" transform="translate(220,118)"/>
<path d="M0 0 C1.98 0.99 3.96 1.98 6 3 C6 3.99 6 4.98 6 6 C4.35 5.67 2.7 5.34 1 5 C0.67 3.35 0.34 1.7 0 0 Z " fill="#3C1F04" transform="translate(258,144)"/>
<path d="M0 0 C1.30048841 2.60097682 1.56471422 5.13955062 2 8 C0.35 7.67 -1.3 7.34 -3 7 C-1.125 1.125 -1.125 1.125 0 0 Z " fill="#E68007" transform="translate(93,125)"/>
<path d="M0 0 C0.33 0 0.66 0 1 0 C1 3.63 1 7.26 1 11 C-0.32 11 -1.64 11 -3 11 C-2.690625 10.484375 -2.38125 9.96875 -2.0625 9.4375 C-0.70940713 6.33334577 -0.38640576 3.34884993 0 0 Z " fill="#E38625" transform="translate(154,37)"/>
<path d="M0 0 C1.65 0.33 3.3 0.66 5 1 C4.67 1.66 4.34 2.32 4 3 C-0.29 3 -4.58 3 -9 3 C-9 2.67 -9 2.34 -9 2 C-6.03 2 -3.06 2 0 2 C0 1.34 0 0.68 0 0 Z " fill="#141616" transform="translate(256,24)"/>
<path d="M0 0 C5.75 1.625 5.75 1.625 8 5 C5.03 4.505 5.03 4.505 2 4 C2 3.34 2 2.68 2 2 C1.34 2 0.68 2 0 2 C0 1.34 0 0.68 0 0 Z " fill="#57320B" transform="translate(216,117)"/>
<path d="M0 0 C2.97 0.495 2.97 0.495 6 1 C4.68 2.65 3.36 4.3 2 6 C0.68 5.67 -0.64 5.34 -2 5 C-1.34 5 -0.68 5 0 5 C0 3.35 0 1.7 0 0 Z " fill="#A06221" transform="translate(138,108)"/>
<path d="M0 0 C0.33 0 0.66 0 1 0 C1 1.98 1 3.96 1 6 C1.99 6.33 2.98 6.66 4 7 C3.67 8.32 3.34 9.64 3 11 C-1.06153846 4.6 -1.06153846 4.6 -0.75 1.5625 C-0.5025 1.046875 -0.255 0.53125 0 0 Z " fill="#F59515" transform="translate(189,33)"/>
<path d="M0 0 C2.375 0.3125 2.375 0.3125 5 1 C5.66 1.99 6.32 2.98 7 4 C5.35 4 3.7 4 2 4 C1.34 2.68 0.68 1.36 0 0 Z " fill="#502D0A" transform="translate(194,105)"/>
<path d="M0 0 C3 3 3 3 3.1875 5.6875 C3.0946875 6.8321875 3.0946875 6.8321875 3 8 C2.01 8.33 1.02 8.66 0 9 C0 6.03 0 3.06 0 0 Z " fill="#C68C49" transform="translate(150,96)"/>
<path d="M0 0 C2.97 0.495 2.97 0.495 6 1 C6 1.66 6 2.32 6 3 C6.66 3 7.32 3 8 3 C8 3.66 8 4.32 8 5 C4.62496331 3.8141763 2.35277269 2.72426311 0 0 Z " fill="#865617" transform="translate(242,133)"/>
<path d="M0 0 C0.66 0.33 1.32 0.66 2 1 C0.25 3.0625 0.25 3.0625 -2 5 C-4.25 4.75 -4.25 4.75 -6 4 C-4.02 2.68 -2.04 1.36 0 0 Z " fill="#6C4011" transform="translate(110,127)"/>
<path d="M0 0 C1.32 0 2.64 0 4 0 C4.125 2.875 4.125 2.875 4 6 C3.34 6.66 2.68 7.32 2 8 C1.34 5.36 0.68 2.72 0 0 Z " fill="#E5A55D" transform="translate(154,31)"/>
</svg>
